<svg width="250" height="100" viewBox="0 0 250 100" fill="none" xmlns="http://www.w3.org/2000/svg">
<path fill-rule="evenodd" clip-rule="evenodd" d="M226.911 0.48482C224.997 1.25443 222.407 3.44193 221.185 5.32059C218.374 9.64223 218.567 13.8276 221.659 15.6073C223.427 16.6257 225.241 16.2677 227.722 14.4118C230.228 12.5371 231.542 10.3684 232.262 6.92244C232.799 4.356 232.798 4.21048 232.233 2.79685C231.153 0.0941434 229.58 -0.58865 226.911 0.48482ZM247.688 12.3723C246.82 12.726 243.628 14.2264 240.593 15.7063C230.211 20.7687 219.439 23.893 207.799 25.2173C197.528 26.3862 184.784 28.0211 182.319 28.4858C180.56 28.8174 180.342 28.9469 180.427 29.6116C180.484 30.0513 181.046 30.6982 181.785 31.1725C184.032 32.616 192.285 35.3646 197.529 36.4164C198.212 36.553 200.451 37.2162 202.506 37.8901C204.56 38.564 207.301 39.3439 208.595 39.6236C212.859 40.5437 213.79 41.4606 213.79 44.7358C213.79 46.813 212.636 51.9171 210.997 57.0905C208.005 66.5333 207.224 68.9162 206.892 69.6164C206.698 70.0266 206.392 70.7959 206.213 71.326C205.892 72.2782 205.897 72.2828 206.607 71.7085C208.967 69.801 208.962 70.1487 206.571 74.1995C203.29 79.7608 205.854 78.1444 213.428 69.8765C220.413 62.2522 227.643 52.6967 233.082 43.9025C245.293 24.1574 250.184 15.2448 249.995 13.079C249.94 12.4495 249.753 11.8884 249.579 11.8319C249.406 11.7753 248.555 12.0187 247.688 12.3723ZM246.281 16.2385C245.868 17.8012 244.013 21.7984 243.462 22.3136C243.074 22.6754 243.067 22.7242 243.431 22.5232C243.715 22.3659 243.639 22.6039 243.241 23.1195C242.877 23.5913 242.488 24.2677 242.376 24.6224C242.259 24.9971 242.02 25.1608 241.808 25.0124C241.589 24.8601 241.526 24.9117 241.651 25.1405C241.917 25.6251 240.629 28.1364 240.25 27.8724C240.096 27.7646 240.039 27.8848 240.125 28.1396C240.298 28.6544 238.904 30.6704 238.607 30.3353C238.504 30.2189 238.438 30.4217 238.461 30.7864C238.518 31.6646 236.213 35.2515 235.784 34.9526C235.596 34.8213 235.542 34.8875 235.661 35.1049C235.834 35.4215 234.648 37.7941 233.575 39.2771C233.433 39.4727 232.884 40.3139 232.355 41.1465C231.825 41.9787 231.241 42.5544 231.056 42.4256C230.867 42.2936 230.812 42.3587 230.93 42.574C231.176 43.0237 226.159 50.7088 225.713 50.565C225.547 50.5113 225.49 50.6124 225.587 50.7896C225.684 50.9667 225.327 51.7314 224.795 52.4885C223.667 54.0907 223.361 54.4327 223.723 53.6872C223.874 53.3756 223.864 53.2749 223.699 53.4457C223.543 53.6061 223.414 53.9498 223.412 54.2092C223.409 54.469 222.877 55.378 222.228 56.2302C221.58 57.082 219.902 59.4221 218.5 61.4307C217.035 63.5289 215.806 64.9813 215.61 64.845C215.423 64.7141 215.352 64.7582 215.453 64.9425C215.554 65.1272 215.168 65.9082 214.595 66.6785C213.638 67.9637 213.503 68.0359 212.962 67.5545C212.421 67.0745 212.407 67.0816 212.792 67.637C213.024 67.9711 213.106 68.4408 212.975 68.681C212.803 68.9948 212.66 68.924 212.468 68.4298C212.233 67.8263 212.217 67.8406 212.336 68.5447C212.481 69.4075 210.766 71.9658 210.273 71.6221C210.126 71.5196 210.006 71.6605 210.006 71.9352C210.006 72.2099 209.722 72.7247 209.376 73.0787C208.41 74.065 208.626 73.1193 209.649 71.8836C210.147 71.2826 210.492 70.7208 210.416 70.6351C210.281 70.4828 210.935 68.982 211.29 68.6311C211.389 68.5333 212.165 66.9048 213.016 65.0122C213.866 63.1197 214.694 61.6634 214.855 61.7762C215.017 61.8886 215.044 61.7893 214.916 61.5552C214.788 61.3211 215.144 60.0555 215.706 58.7429C217.341 54.9315 218.212 52.3113 218.975 48.9041C219.367 47.1543 219.75 45.9317 219.826 46.1879C219.901 46.4441 219.946 45.2343 219.924 43.4991C219.877 39.7175 219.24 37.8229 217.309 35.719C214.623 32.7914 210.487 30.5434 204.986 29.0209L202.085 28.2179L206.44 27.5539C208.835 27.1889 211.389 26.8793 212.116 26.8658C212.843 26.8523 213.369 26.7637 213.285 26.6687C213.154 26.5217 217.223 25.5144 219.781 25.0601C220.215 24.9829 221.534 24.6626 222.712 24.3485C223.89 24.0339 225.012 23.8866 225.204 24.0211C225.403 24.1595 225.467 24.1047 225.351 23.8944C225.227 23.6674 225.728 23.428 226.643 23.2775C227.465 23.1423 228.97 22.7263 229.988 22.3534C231.006 21.9802 231.964 21.7624 232.117 21.8688C232.269 21.9752 232.394 21.9307 232.394 21.7699C232.394 21.6087 233.097 21.2889 233.955 21.059C235.679 20.5968 243.811 17.0726 244.061 16.679C244.245 16.3901 246.01 15.2953 246.325 15.2743C246.443 15.2665 246.423 15.7002 246.281 16.2385ZM128.867 24.685C126.242 25.813 123.607 29.4326 123.607 31.9101C123.607 34.3833 125.876 36.6085 128.397 36.6085C130.992 36.6085 134.199 34.5697 135.645 32.0022C136.353 30.7441 136.533 30.0161 136.524 28.4441C136.513 26.4851 136.5 26.4591 135.046 25.4184C133.306 24.1727 130.761 23.8706 128.867 24.685ZM24.28 25.4233C20.0354 26.5029 15.3371 29.7304 12.5313 33.4941C10.3499 36.4203 9.20023 38.505 7.40887 42.7821C2.99685 53.3154 0 65.2037 0 72.1725C0 76.0472 0.661551 77.9693 2.84423 80.4347C4.36062 82.1476 4.961 82.561 6.80912 83.1652C10.1112 84.2443 14.9281 84.3856 21.5786 83.5978C26.0855 83.0641 27.5714 83.0083 28.8995 83.3228C29.8158 83.5395 30.6256 83.6451 30.6984 83.5573C30.846 83.3794 39.4156 51.7936 39.4156 51.4275C39.4156 51.3005 35.5049 51.1966 30.7256 51.1966C25.6236 51.1966 22.1084 51.3297 22.2118 51.5186C22.3086 51.6954 23.1622 52.3334 24.1085 52.9358C25.0548 53.5385 25.9771 54.3437 26.1581 54.7255C26.8089 56.0975 26.4838 58.486 24.9447 63.6417C24.0962 66.4839 23.107 69.9391 22.7466 71.3207C22.0002 74.181 20.989 76.0686 19.856 76.7154C18.3346 77.584 14.9593 77.0987 13.5463 75.8074C12.9885 75.2976 12.822 74.6898 12.6959 72.7009C12.5651 70.6361 12.7246 69.4349 13.6608 65.4268C15.1504 59.0503 19.2887 44.1822 20.4844 40.9106C22.8487 34.4409 25.2559 31.9428 28.5832 32.506C30.7653 32.875 31.2171 33.6098 31.2171 36.7864V39.455L36.4988 39.4496C39.4039 39.4464 41.9489 39.3233 42.1548 39.1753C42.6767 38.801 43.0812 37.4713 43.3512 35.2433C43.8399 31.2123 42.2097 28.304 38.2927 26.2179C36.1425 25.0729 36.0202 25.0515 31.2171 24.9775C27.847 24.9256 25.6933 25.064 24.28 25.4233ZM218.776 26.8889C219.004 26.9917 219.276 26.9789 219.381 26.8608C219.485 26.7427 219.299 26.6587 218.967 26.674C218.599 26.6911 218.525 26.7754 218.776 26.8889ZM209.317 29.7354C209.544 29.8382 209.816 29.8254 209.921 29.7073C210.025 29.5891 209.839 29.5052 209.507 29.5205C209.14 29.5375 209.065 29.6219 209.317 29.7354ZM216.943 33.5461C216.943 33.6229 217.163 33.7813 217.433 33.898C217.713 34.0193 217.84 33.9595 217.729 33.7581C217.544 33.4198 216.943 33.2579 216.943 33.5461ZM216.943 34.6135C216.943 34.6903 217.163 34.8487 217.433 34.9654C217.713 35.0867 217.84 35.0269 217.729 34.8256C217.544 34.4872 216.943 34.3253 216.943 34.6135ZM96.3317 40.9387C90.7369 41.5119 89.154 41.5553 86.1259 41.2176C84.1195 40.9942 82.4224 40.9533 82.2701 41.1251C82.1206 41.2938 81.5581 43.1084 81.0198 45.1578C80.4819 47.2069 78.7877 53.4471 77.2552 59.0244C74.4463 69.2478 71.4482 80.5834 71.1618 82.0629L71.007 82.8634H76.7762H82.5457L83.2189 81.2474C83.5891 80.3586 84.2595 78.1572 84.7085 76.355C85.1578 74.5532 86.2416 70.4369 87.1173 67.2079C87.9932 63.979 89.4633 58.3868 90.3847 54.781C91.3057 51.1753 92.2404 48.0954 92.4614 47.937C93.4503 47.229 97.9881 47.4489 98.7654 48.2427C99.9463 49.4482 99.6688 50.9347 95.3901 66.3184C92.4671 76.829 91.1291 81.9647 91.1285 82.6784C91.1282 82.9157 93.0958 83.005 96.8059 82.9367L102.484 82.8325L103.013 81.922C103.304 81.421 104.016 78.9866 104.595 76.5112C105.174 74.0362 106.706 68.3155 107.998 63.7986C112.1 49.4592 112.69 45.9129 111.333 43.7613C110.22 41.9968 105.767 39.9933 103.447 40.2135C103.176 40.2392 99.9737 40.5654 96.3317 40.9387ZM186.202 40.7028C181.465 41.8161 177.415 45.1073 175.565 49.3489C174.63 51.4919 174.532 52.0178 174.532 54.9251C174.532 59.3382 174.988 60.2056 180.519 66.3184C183.844 69.9932 185.082 71.5961 185.238 72.4301C185.827 75.5594 182.455 77.8377 178.542 76.9546C177.741 76.7738 177.552 76.5283 177.382 75.4424C176.954 72.7137 177.316 72.9008 172.469 72.9008C168.126 72.9008 168.078 72.9097 167.561 73.7996C167.172 74.4699 167.09 75.1186 167.239 76.3486C167.529 78.7329 168.311 79.9921 170.598 81.7569C173.115 83.6996 175.282 84.0796 180.681 83.5245C184.43 83.1392 187.768 81.9408 190.965 79.8323C193.904 77.8935 195.844 74.1543 196.064 70.0028C196.271 66.1135 195.652 64.871 190.846 59.5317C185.809 53.936 185.411 53.3129 185.411 51.0287C185.411 49.9324 185.613 48.8938 185.925 48.3918C186.805 46.9739 189.408 46.1395 190.915 46.7921C191.531 47.0589 192.348 48.7479 192.348 49.7556C192.348 50.4569 192.522 50.485 196.857 50.485C199.944 50.485 201.486 50.3501 201.745 50.058C202.314 49.4154 202.186 46.2292 201.525 44.5861C200.334 41.6264 197.97 40.548 192.19 40.3285C189.637 40.2317 187.69 40.3534 186.202 40.7028ZM55.4848 42.4121C50.9148 44.7376 48.7984 46.6312 45.9567 50.9361C43.7248 54.3167 40.9187 61.7388 39.8835 66.9994C39.4764 69.0674 39.379 70.6094 39.5162 72.8041C39.8321 77.8547 41.5611 80.9659 45.0895 82.8339C46.7368 83.706 47.0925 83.753 52.0286 83.753H57.2314L59.9117 82.2984C63.9009 80.133 67.4795 76.0924 67.4795 73.753C67.4795 73.2278 67.2159 73.1819 65.351 73.3805C64.1802 73.5054 62.2262 73.6085 61.0081 73.61L58.7939 73.6125L58.1859 74.8862C57.8517 75.5868 57.1517 76.5646 56.6307 77.0592C55.8191 77.8298 55.4584 77.9344 54.111 77.7882C51.9491 77.5537 51.0826 76.423 51.0826 73.8359C51.0826 71.4612 51.5654 68.4066 52.4252 65.3399L53.0988 62.9382H61.9913H70.884L71.7108 60.3586C73.5179 54.7205 74.0058 48.7803 72.8668 46.29C72.046 44.4964 70.1405 42.4914 68.4255 41.6172C67.2266 41.0059 66.3462 40.8928 62.7496 40.8878L58.4927 40.8817L55.4848 42.4121ZM120.951 41.6788C120.696 42.1192 119.641 45.8417 118.607 49.9513C116.579 58.0078 115.174 63.5549 112.48 74.1462C110 83.8949 110.098 83.0058 111.529 82.7393C112.189 82.6162 114.857 82.5133 117.458 82.5108L122.188 82.5059L127.669 62.137C130.683 50.9337 133.217 41.5677 133.3 41.3229C133.416 40.9767 132.116 40.8782 127.432 40.8782C121.539 40.8782 121.405 40.8949 120.951 41.6788ZM140.24 42.9241C139.285 45.3806 138.203 49.1201 136.716 55.1105C136.108 57.5567 135.105 61.2393 134.487 63.294C131.988 71.6 131.422 74.2874 131.543 77.2826C131.651 79.9789 131.696 80.1216 132.804 81.2673C133.436 81.9209 134.499 82.6386 135.166 82.8617C137.31 83.58 143.394 83.9323 146.468 83.5156C148.029 83.3043 152.069 83.031 155.446 82.9086L161.585 82.6855L163.195 75.9252C164.081 72.207 165.815 65.7224 167.048 61.515C169.247 54.0121 171.532 45.393 172.121 42.3825L172.419 40.8625L166.713 40.9593L161.008 41.0561L160.46 42.1235C160.158 42.7106 159.266 45.6727 158.477 48.7059C157.688 51.7392 156.255 57.1831 155.291 60.8034C154.328 64.4237 153.207 68.8268 152.801 70.5881C151.5 76.2351 150.99 76.8147 147.321 76.8147C144.58 76.8147 144.102 76.3351 144.106 73.5843C144.109 71.6523 144.446 70.3088 148.695 55.2884C151.391 45.7535 152.302 42.285 152.302 41.5443C152.302 40.918 151.964 40.8782 146.669 40.8782H141.036L140.24 42.9241ZM63.5912 47.8442C64.3606 48.7124 64.3953 48.9088 64.2351 51.4912C64.1421 52.9927 63.905 54.8216 63.7082 55.5552L63.3506 56.8895H59.1164H54.8823L55.0652 55.7331C55.3332 54.0377 56.8379 50.4875 57.875 49.1034C59.585 46.8212 62.1782 46.2502 63.5912 47.8442ZM216.313 63.1161C216.086 63.4239 216.056 63.6498 216.241 63.6498C216.416 63.6498 216.642 63.4097 216.742 63.1161C216.842 62.8226 216.874 62.5824 216.814 62.5824C216.754 62.5824 216.529 62.8226 216.313 63.1161ZM19.798 94.8719L19.7078 98.341H18.7618C17.9644 98.341 17.8001 98.1877 17.7162 97.3626C17.6377 96.594 17.4516 96.3841 16.8491 96.3841C16.1847 96.3841 16.0816 96.5485 16.0816 97.6092C16.0816 99.2078 16.9969 99.9422 18.9898 99.9422C21.3979 99.9422 21.7574 99.2953 21.7574 94.9609V91.4028H20.8228H19.8882L19.798 94.8719ZM23.0187 95.686V99.9689L25.9355 99.8667C28.2777 99.7846 28.8522 99.6593 28.8522 99.2306C28.8522 98.8189 28.3619 98.6727 26.7048 98.5912L24.5575 98.4855L24.6552 97.3459C24.7527 96.2098 24.7593 96.2058 26.7238 96.1002C28.1935 96.0212 28.6945 95.8628 28.6945 95.4775C28.6945 95.079 28.2266 94.9609 26.6449 94.9609H24.5953V93.8935V92.826H26.6449C28.4842 92.826 28.6945 92.7531 28.6945 92.1144C28.6945 91.4555 28.4842 91.4028 25.8566 91.4028H23.0187V95.686ZM29.9558 95.6725V99.9422H32.9514C35.7367 99.9422 35.947 99.8924 35.947 99.2306C35.947 98.5862 35.7367 98.5189 33.7199 98.5189H31.4924L31.5914 97.3626C31.6901 96.2062 31.6901 96.2062 33.6609 96.1002C35.1306 96.0212 35.6317 95.8628 35.6317 95.4775C35.6317 95.079 35.1637 94.9609 33.5821 94.9609H31.5325V93.9098C31.5325 92.8598 31.535 92.8584 33.6578 92.7534C35.3867 92.6677 35.8026 92.5321 35.888 92.0255C35.9823 91.4676 35.6793 91.4028 32.9744 91.4028H29.9558V95.6725ZM47.2987 95.696V99.9895L48.1658 99.8767L49.033 99.7643V96.6502C49.033 94.9377 49.1046 93.5369 49.1922 93.5369C49.2799 93.5373 50.0603 94.9758 50.9265 96.7339L52.5016 99.9297L53.9994 99.9361L55.4971 99.9422V95.6725V91.4028H54.5631H53.6288L53.5383 94.62L53.4475 97.8372L51.8709 94.6314L50.2943 91.4256L48.7965 91.4142L47.2987 91.4028V95.696ZM56.6497 94.6944C56.6765 96.5044 56.7121 98.4257 56.7285 98.9637L56.7584 99.9422H59.5964C62.224 99.9422 62.4343 99.8895 62.4343 99.2306C62.4343 98.5919 62.224 98.5189 60.3847 98.5189H58.3351V97.2736V96.0283H60.4108C61.9307 96.0283 62.4519 95.9091 62.3567 95.5835C62.276 95.3081 61.4855 95.0986 60.2809 95.0327C58.3571 94.9281 58.3351 94.915 58.3351 93.8764V92.826H60.3847C62.224 92.826 62.4343 92.7531 62.4343 92.1144C62.4343 91.454 62.2243 91.4028 59.5175 91.4032H56.6008L56.6497 94.6944ZM63.6956 95.6725V99.9422H66.7142C69.419 99.9422 69.7221 99.8774 69.6278 99.3195C69.542 98.8121 69.1252 98.6773 67.3786 98.5912L65.2344 98.4855L65.3321 97.3459C65.4296 96.2098 65.4362 96.2058 67.4007 96.1002C68.8704 96.0212 69.3714 95.8628 69.3714 95.4775C69.3714 95.079 68.9035 94.9609 67.3218 94.9609H65.2722V93.8935V92.826H67.3218C69.1611 92.826 69.3714 92.7531 69.3714 92.1144C69.3714 91.4555 69.1611 91.4028 66.5335 91.4028H63.6956V95.6725ZM70.0021 92.1144C70.0021 92.7076 70.2124 92.826 71.2634 92.826H72.5247V96.4076V99.9895L73.3918 99.8767L74.259 99.7643L74.3491 96.3158L74.439 92.8673L75.6076 92.7577C76.4218 92.6812 76.808 92.4592 76.8809 92.0255C76.9755 91.4629 76.6488 91.4028 73.4937 91.4028C70.2124 91.4028 70.0021 91.4455 70.0021 92.1144ZM88.389 91.9344C87.5701 92.5819 87.215 94.6293 87.5215 96.9356C87.851 99.4159 88.4763 99.9422 91.0938 99.9422C93.5143 99.9422 94.4867 99.3597 94.6573 97.8073C94.7387 97.0683 94.6084 96.8986 93.8879 96.8054C93.203 96.7164 93.0208 96.8392 93.0208 97.39C93.0208 97.7732 92.7963 98.1841 92.5219 98.303C91.6854 98.6652 90.0161 98.5442 89.6153 98.092C89.124 97.5376 89.124 93.8074 89.6153 93.253C89.8234 93.0182 90.5943 92.826 91.3284 92.826C92.386 92.826 92.7045 92.9737 92.8631 93.5376C92.9911 93.9924 93.3402 94.2493 93.8302 94.2493C94.4249 94.2493 94.5974 94.0614 94.5974 93.4149C94.5974 91.955 93.6795 91.4028 91.2531 91.4028C89.8193 91.4028 88.8292 91.5868 88.389 91.9344ZM95.5434 95.686V99.9689L98.4601 99.8667C100.802 99.7846 101.377 99.6593 101.377 99.2306C101.377 98.8189 100.887 98.6727 99.2295 98.5912L97.0822 98.4855L97.1799 97.3459C97.284 96.1315 97.2521 96.1461 100.037 96.0635C100.864 96.039 101.219 95.8678 101.219 95.4946C101.219 95.0751 100.781 94.9609 99.1696 94.9609H97.12V93.8935V92.826H99.1696C101.009 92.826 101.219 92.7531 101.219 92.1144C101.219 91.4555 101.009 91.4028 98.3813 91.4028H95.5434V95.686ZM101.85 92.1144C101.85 92.7076 102.06 92.826 103.111 92.826H104.372V96.3841V99.9422H105.318H106.264V96.3841V92.826H107.526C108.577 92.826 108.787 92.7076 108.787 92.1144C108.787 91.4459 108.577 91.4028 105.318 91.4028C102.06 91.4028 101.85 91.4459 101.85 92.1144ZM119.508 95.6725V99.9422H120.454C121.379 99.9422 121.4 99.9027 121.4 98.1631V96.3841H123.315C124.969 96.3841 125.216 96.2991 125.125 95.7614C125.042 95.2704 124.638 95.1164 123.21 95.032C121.437 94.9274 121.4 94.9036 121.4 93.8757C121.4 92.8299 121.407 92.826 123.292 92.826C124.974 92.826 125.184 92.747 125.184 92.1144C125.184 91.4555 124.974 91.4028 122.346 91.4028H119.508V95.6725ZM126.786 92.0852C126.055 92.9104 125.611 96.2991 126.023 97.9173C126.423 99.4917 127.449 99.9931 129.992 99.8557C132.793 99.7049 133.116 99.3199 133.31 95.9034C133.453 93.4024 133.412 93.1833 132.648 92.3211C131.927 91.5078 131.581 91.4028 129.613 91.4028C127.843 91.4028 127.268 91.5416 126.786 92.0852ZM134.328 94.8691C134.328 99.465 134.482 99.7052 137.535 99.8792C139.501 99.9913 139.979 99.9016 140.641 99.2971C141.364 98.6367 141.431 98.3126 141.532 94.9929L141.64 91.4028H140.676H139.712L139.621 94.8719L139.531 98.341L138.03 98.4496C136.213 98.5812 136.17 98.4948 136.108 94.5183C136.063 91.5928 136.059 91.5804 135.195 91.4683L134.328 91.3555V94.8691ZM142.842 95.6529V99.9422H143.619C144.385 99.9422 144.397 99.8952 144.486 96.4731L144.576 93.0039L146.311 96.4731L148.045 99.9418L149.385 99.9422H150.725V95.6725V91.4028H149.949C149.186 91.4028 149.171 91.4615 149.082 94.694L148.991 97.9852L147.381 94.783L145.77 91.5807L144.306 91.4722L142.842 91.3637V95.6529ZM152.302 95.6725V99.9422H154.967C156.433 99.9422 157.994 99.7564 158.435 99.5298C160.223 98.6104 160.343 92.8061 158.596 91.7511C158.279 91.5597 156.733 91.4028 155.161 91.4028H152.302V95.6725ZM161.503 95.4056C160.778 97.6074 160.185 99.5284 160.185 99.6753C160.185 99.8223 160.543 99.9422 160.981 99.9422C161.54 99.9422 161.867 99.6775 162.077 99.0527C162.347 98.2514 162.55 98.1631 164.126 98.1631C165.703 98.1631 165.906 98.2514 166.176 99.0527C166.386 99.6775 166.713 99.9422 167.272 99.9422C167.71 99.9422 168.07 99.8223 168.072 99.6753C168.074 99.5284 167.471 97.6074 166.732 95.4056L165.388 91.4032L164.104 91.4028H162.821L161.503 95.4056ZM168.068 92.1144C168.068 92.7076 168.278 92.826 169.329 92.826H170.591V96.4076V99.9895L171.458 99.8767L172.325 99.7643L172.415 96.3158L172.505 92.8673L173.648 92.7577C174.45 92.6809 174.814 92.4624 174.87 92.0255C174.942 91.4651 174.605 91.4028 171.509 91.4028C168.278 91.4028 168.068 91.4462 168.068 92.1144ZM175.636 95.6725V99.9422H176.424H177.212V95.6725V91.4028H176.424H175.636V95.6725ZM179.546 91.675C178.815 92.2262 178.474 93.5793 178.479 95.9159C178.481 97.2498 178.588 98.5172 178.715 98.7324C179.19 99.5351 180.38 99.9422 182.251 99.9422C183.877 99.9422 184.299 99.8056 184.952 99.0687C185.637 98.2959 185.726 97.8867 185.726 95.5106C185.726 91.8721 185.319 91.4007 182.179 91.4081C180.922 91.4113 179.737 91.5313 179.546 91.675ZM186.672 95.6725V99.9422H187.606H188.541L188.631 96.709L188.722 93.4761L190.308 96.62L191.895 99.7643L193.383 99.8728L194.871 99.9813V95.6921V91.4028H193.902H192.934L193.035 94.6058C193.091 96.3677 193.065 97.8088 192.977 97.808C192.889 97.8077 192.109 96.3692 191.243 94.6111L189.668 91.4153L188.17 91.4089L186.672 91.4028V95.6725ZM199.601 95.6725V99.9422H200.546H201.492V95.6725V91.4028H200.546H199.601V95.6725ZM220.727 92.1393C220.727 92.6983 220.897 92.8481 221.434 92.762C222.482 92.593 222.574 91.4028 221.539 91.4028C220.928 91.4028 220.727 91.5853 220.727 92.1393ZM215.997 93.1818C215.997 93.5732 215.856 93.8935 215.682 93.8935C215.509 93.8935 215.367 94.1336 215.367 94.4272C215.367 94.7207 215.509 94.9609 215.682 94.9609C215.856 94.9609 215.997 95.7721 215.997 96.7634C215.997 99.3007 216.377 99.9422 217.878 99.9422C219.209 99.9422 220.191 99.1537 220.03 98.213C219.878 97.3245 218.943 97.3032 218.739 98.1834C218.415 99.581 217.736 98.7299 217.636 96.8008L217.541 94.9609H218.661C219.447 94.9609 219.781 94.8015 219.781 94.4272C219.781 94.0543 219.448 93.8935 218.678 93.8935C217.784 93.8935 217.574 93.7579 217.574 93.1818C217.574 92.6599 217.364 92.4702 216.786 92.4702C216.208 92.4702 215.997 92.6599 215.997 93.1818ZM223.565 93.1818C223.565 93.5732 223.423 93.8935 223.25 93.8935C223.076 93.8935 222.935 94.1336 222.935 94.4272C222.935 94.7207 223.076 94.9609 223.25 94.9609C223.424 94.9609 223.565 95.886 223.565 97.0246C223.565 99.438 223.899 99.9422 225.498 99.9422C226.777 99.9422 227.755 99.1366 227.598 98.213C227.449 97.3444 226.49 97.2943 226.251 98.1429C226.138 98.5453 225.842 98.8748 225.594 98.8748C225.256 98.8748 225.142 98.3791 225.142 96.9178V94.9609H226.245C227.016 94.9609 227.349 94.8001 227.349 94.4272C227.349 94.0578 227.02 93.8935 226.282 93.8935C225.48 93.8935 225.174 93.7166 225.05 93.1818C224.952 92.7559 224.62 92.4702 224.225 92.4702C223.776 92.4702 223.565 92.6969 223.565 93.1818ZM235.232 93.015C235.232 93.3149 235.019 93.6522 234.759 93.7647C234.499 93.8774 234.286 94.1756 234.286 94.4272C234.286 94.6787 234.499 94.9769 234.759 95.0897C235.098 95.2363 235.232 95.8333 235.232 97.1914C235.232 99.4316 235.588 99.9422 237.149 99.9422C238.367 99.9422 238.884 99.5138 239.065 98.3539C239.22 97.3562 238.081 97.1477 237.853 98.1322C237.421 99.9991 236.326 98.3464 236.548 96.1603C236.639 95.2619 236.794 95.1256 237.834 95.0285C239.438 94.8787 239.481 93.8935 237.883 93.8935C237.015 93.8935 236.711 93.7269 236.585 93.1818C236.393 92.3521 235.232 92.2091 235.232 93.015ZM131.427 95.2587C131.54 97.9322 131.215 98.5189 129.623 98.5189C128.05 98.5189 127.706 98.0091 127.706 95.6725C127.706 93.2192 128.069 92.763 129.912 92.899L131.333 93.0039L131.427 95.2587ZM157.599 93.253C157.807 93.4878 157.978 94.5172 157.978 95.5405C157.978 97.9735 157.451 98.5905 155.496 98.4478L154.036 98.341L153.944 95.5835L153.852 92.826H155.536C156.463 92.826 157.391 93.0182 157.599 93.253ZM183.859 93.5896C184.322 94.5663 184.06 97.7835 183.483 98.1955C182.645 98.7947 180.727 98.5695 180.377 97.8308C179.966 96.9634 179.956 94.9313 180.358 93.7387C180.625 92.9459 180.852 92.826 182.081 92.826C183.206 92.826 183.571 92.9829 183.859 93.5896ZM164.839 94.783C165.019 95.3701 165.266 96.1308 165.389 96.4731C165.581 97.0061 165.426 97.0957 164.318 97.0957C162.832 97.0957 162.747 96.8207 163.538 94.5891C164.086 93.0427 164.319 93.0772 164.839 94.783ZM202.754 96.9178C202.754 99.8909 202.767 99.9422 203.527 99.9422C204.254 99.9422 204.306 99.8105 204.394 97.7554C204.499 95.3224 205.099 94.4375 206.144 95.1776C206.552 95.4665 206.72 96.1386 206.789 97.7554C206.871 99.6511 206.965 99.9422 207.499 99.9422C207.975 99.9422 208.123 99.68 208.154 98.7858C208.236 96.4247 208.092 94.825 207.754 94.366C207.321 93.7768 205.218 93.7454 204.709 94.3204C204.415 94.6524 204.33 94.6524 204.33 94.3204C204.33 94.0856 203.976 93.8935 203.542 93.8935C202.763 93.8935 202.754 93.929 202.754 96.9178ZM209.754 94.3204C209.257 94.8808 209.268 96.6211 209.77 96.9794C209.987 97.1342 210.873 97.3437 211.741 97.4451C212.859 97.5761 213.317 97.7846 213.317 98.1631C213.317 98.9349 211.251 99.1089 210.884 98.3681C210.477 97.5479 209.376 97.649 209.376 98.5065C209.376 99.4604 210.3 99.9422 212.132 99.9422C213.981 99.9422 214.815 99.3402 214.815 98.0059C214.815 96.8335 214.311 96.3969 212.949 96.3894C211.631 96.3823 210.952 96.0649 210.952 95.4565C210.952 95.1274 211.323 94.9609 212.056 94.9609C212.663 94.9609 213.159 95.121 213.159 95.3167C213.159 95.7881 214.327 95.7753 214.587 95.301C214.699 95.0968 214.619 94.6965 214.409 94.4115C213.934 93.765 210.309 93.6939 209.754 94.3204ZM220.727 96.9427C220.727 99.9013 220.748 99.9884 221.437 99.8781C222.098 99.7721 222.153 99.5657 222.238 96.8289C222.329 93.8952 222.329 93.8935 221.528 93.8935C220.733 93.8935 220.727 93.9145 220.727 96.9427ZM228.295 96.3588C228.295 98.1254 228.435 98.9822 228.79 99.3832C229.356 100.021 230.883 100.118 231.784 99.5739C232.205 99.3199 232.394 99.3199 232.394 99.5739C232.394 99.7764 232.678 99.9422 233.025 99.9422C233.606 99.9422 233.656 99.7049 233.656 96.9178C233.656 93.929 233.646 93.8935 232.867 93.8935C232.107 93.8935 232.079 93.9771 232.079 96.1994C232.079 98.3482 232.026 98.5204 231.309 98.7235C230.107 99.0641 229.872 98.6481 229.872 96.1852C229.872 93.9778 229.843 93.8935 229.083 93.8935C228.318 93.8935 228.295 93.9664 228.295 96.3588ZM240.138 94.6844C239.423 95.8358 239.5 98.3535 240.277 99.2306C241.211 100.284 244.152 100.247 244.819 99.1726C245.081 98.7492 245.223 98.2688 245.133 98.1051C244.856 97.5995 243.824 97.7764 243.624 98.3638C243.494 98.747 243.115 98.8854 242.408 98.8086C241.62 98.7228 241.358 98.5104 241.28 97.8963C241.185 97.1359 241.283 97.0957 243.251 97.0957C245.436 97.0957 245.52 97.0157 244.987 95.4359C244.538 94.103 244.188 93.9052 242.266 93.8988C240.928 93.8945 240.539 94.0383 240.138 94.6844ZM243.533 95.4597C243.773 96.1671 243.478 96.3841 242.274 96.3841C241.285 96.3841 240.884 95.818 241.434 95.1982C241.82 94.7623 243.361 94.9545 243.533 95.4597Z" fill="#B6B6B6"/>
</svg>
