<svg width="250" height="100" viewBox="0 0 250 100" fill="none" xmlns="http://www.w3.org/2000/svg">
<g clip-path="url(#clip0_51_47)">
<path fill-rule="evenodd" clip-rule="evenodd" d="M226.911 8.48482C224.997 9.25443 222.407 11.4419 221.185 13.3206C218.374 17.6422 218.567 21.8276 221.659 23.6073C223.427 24.6257 225.241 24.2677 227.722 22.4118C230.228 20.5371 231.542 18.3684 232.262 14.9224C232.799 12.356 232.798 12.2105 232.233 10.7969C231.153 8.09414 229.58 7.41135 226.911 8.48482ZM247.688 20.3723C246.82 20.726 243.628 22.2264 240.593 23.7063C230.211 28.7687 219.439 31.893 207.799 33.2173C197.528 34.3862 184.784 36.0211 182.319 36.4858C180.56 36.8174 180.342 36.9469 180.427 37.6116C180.484 38.0513 181.046 38.6982 181.785 39.1725C184.032 40.616 192.285 43.3646 197.529 44.4164C198.212 44.553 200.451 45.2162 202.506 45.8901C204.56 46.564 207.301 47.3439 208.595 47.6236C212.859 48.5437 213.79 49.4606 213.79 52.7358C213.79 54.813 212.636 59.9171 210.997 65.0905C208.005 74.5333 207.224 76.9162 206.892 77.6164C206.698 78.0266 206.392 78.7959 206.214 79.326C205.893 80.2782 205.897 80.2828 206.607 79.7085C208.967 77.801 208.962 78.1487 206.571 82.1995C203.29 87.7608 205.854 86.1444 213.428 77.8765C220.413 70.2522 227.643 60.6967 233.082 51.9025C245.293 32.1574 250.184 23.2448 249.995 21.079C249.94 20.4495 249.753 19.8884 249.579 19.8319C249.406 19.7753 248.555 20.0187 247.688 20.3723ZM246.281 24.2385C245.868 25.8012 244.013 29.7984 243.462 30.3136C243.074 30.6754 243.067 30.7242 243.431 30.5232C243.715 30.3659 243.639 30.6039 243.241 31.1195C242.877 31.5913 242.488 32.2677 242.376 32.6224C242.259 32.9971 242.02 33.1608 241.808 33.0124C241.589 32.8601 241.526 32.9117 241.651 33.1405C241.917 33.6251 240.629 36.1364 240.25 35.8724C240.096 35.7646 240.039 35.8848 240.125 36.1396C240.298 36.6544 238.904 38.6704 238.607 38.3353C238.504 38.2189 238.438 38.4217 238.461 38.7864C238.518 39.6646 236.213 43.2514 235.784 42.9526C235.596 42.8213 235.542 42.8875 235.661 43.1049C235.834 43.4215 234.648 45.794 233.575 47.2771C233.433 47.4727 232.884 48.3139 232.355 49.1465C231.825 49.9787 231.241 50.5544 231.056 50.4256C230.867 50.2936 230.812 50.3587 230.93 50.574C231.176 51.0237 226.159 58.7088 225.714 58.565C225.547 58.5113 225.49 58.6124 225.587 58.7896C225.684 58.9668 225.327 59.7314 224.795 60.4885C223.667 62.0907 223.361 62.4327 223.723 61.6872C223.874 61.3756 223.864 61.2749 223.699 61.4457C223.543 61.6061 223.414 61.9498 223.412 62.2092C223.409 62.469 222.877 63.378 222.228 64.2302C221.58 65.082 219.902 67.4221 218.5 69.4307C217.035 71.5289 215.806 72.9813 215.61 72.845C215.423 72.7141 215.352 72.7582 215.453 72.9425C215.554 73.1272 215.168 73.9081 214.595 74.6785C213.638 75.9637 213.504 76.0359 212.962 75.5545C212.421 75.0745 212.407 75.0816 212.792 75.637C213.024 75.9711 213.106 76.4408 212.975 76.681C212.803 76.9948 212.66 76.924 212.468 76.4298C212.233 75.8263 212.217 75.8406 212.336 76.5447C212.481 77.4075 210.766 79.9658 210.273 79.6221C210.126 79.5196 210.006 79.6605 210.006 79.9352C210.006 80.2099 209.722 80.7247 209.376 81.0787C208.41 82.065 208.626 81.1193 209.649 79.8836C210.147 79.2826 210.492 78.7208 210.416 78.6351C210.281 78.4828 210.935 76.982 211.29 76.6311C211.389 76.5333 212.165 74.9048 213.016 73.0122C213.866 71.1197 214.694 69.6634 214.855 69.7762C215.017 69.8886 215.044 69.7893 214.916 69.5552C214.788 69.3211 215.144 68.0555 215.706 66.7429C217.341 62.9315 218.212 60.3113 218.975 56.9041C219.367 55.1543 219.75 53.9317 219.826 54.1879C219.901 54.4441 219.946 53.2343 219.924 51.4991C219.877 47.7175 219.24 45.8229 217.309 43.719C214.623 40.7914 210.487 38.5434 204.986 37.0209L202.085 36.2179L206.44 35.5539C208.835 35.1889 211.389 34.8793 212.116 34.8658C212.843 34.8523 213.369 34.7637 213.285 34.6687C213.154 34.5217 217.223 33.5144 219.781 33.0601C220.215 32.9829 221.534 32.6626 222.712 32.3484C223.89 32.0339 225.012 31.8866 225.204 32.0211C225.403 32.1595 225.467 32.1047 225.352 31.8944C225.227 31.6674 225.728 31.428 226.643 31.2775C227.465 31.1423 228.97 30.7263 229.988 30.3534C231.006 29.9802 231.964 29.7624 232.117 29.8688C232.269 29.9752 232.394 29.9307 232.394 29.7699C232.394 29.6087 233.097 29.2889 233.955 29.059C235.679 28.5968 243.811 25.0725 244.061 24.679C244.245 24.3901 246.01 23.2953 246.325 23.2743C246.443 23.2665 246.423 23.7002 246.281 24.2385ZM128.867 32.685C126.242 33.813 123.607 37.4326 123.607 39.9101C123.607 42.3833 125.876 44.6085 128.397 44.6085C130.992 44.6085 134.199 42.5697 135.645 40.0022C136.353 38.7441 136.533 38.0161 136.524 36.4441C136.513 34.4851 136.5 34.4591 135.046 33.4184C133.306 32.1727 130.761 31.8706 128.867 32.685ZM24.28 33.4233C20.0354 34.5029 15.3371 37.7304 12.5313 41.4941C10.3499 44.4203 9.20023 46.505 7.40887 50.7821C2.99685 61.3154 0 73.2037 0 80.1725C0 84.0472 0.661551 85.9693 2.84423 88.4347C4.36062 90.1475 4.961 90.561 6.80912 91.1652C10.1112 92.2443 14.9281 92.3856 21.5786 91.5978C26.0855 91.0641 27.5714 91.0082 28.8995 91.3228C29.8158 91.5395 30.6256 91.6451 30.6984 91.5573C30.846 91.3794 39.4156 59.7936 39.4156 59.4275C39.4156 59.3005 35.5049 59.1966 30.7256 59.1966C25.6236 59.1966 22.1084 59.3297 22.2118 59.5186C22.3086 59.6954 23.1622 60.3334 24.1085 60.9358C25.0548 61.5385 25.9771 62.3437 26.1581 62.7255C26.8089 64.0975 26.4838 66.486 24.9447 71.6417C24.0962 74.4839 23.107 77.9391 22.7466 79.3207C22.0002 82.181 20.989 84.0686 19.856 84.7154C18.3346 85.584 14.9593 85.0986 13.5463 83.8074C12.9885 83.2976 12.822 82.6898 12.6959 80.7009C12.5651 78.6361 12.7246 77.4349 13.6608 73.4268C15.1504 67.0503 19.2887 52.1822 20.4844 48.9106C22.8487 42.4409 25.2559 39.9428 28.5832 40.506C30.7653 40.875 31.2171 41.6098 31.2171 44.7864V47.455L36.4988 47.4496C39.4039 47.4464 41.9489 47.3233 42.1548 47.1753C42.6767 46.801 43.0812 45.4713 43.3512 43.2433C43.8399 39.2123 42.2097 36.304 38.2927 34.2179C36.1425 33.0729 36.0202 33.0515 31.2171 32.9775C27.847 32.9256 25.6933 33.064 24.28 33.4233ZM218.776 34.8889C219.004 34.9917 219.276 34.9789 219.381 34.8608C219.485 34.7427 219.299 34.6587 218.967 34.674C218.599 34.6911 218.525 34.7754 218.776 34.8889ZM209.317 37.7354C209.544 37.8382 209.816 37.8254 209.921 37.7073C210.025 37.5891 209.839 37.5052 209.507 37.5205C209.14 37.5375 209.065 37.6219 209.317 37.7354ZM216.943 41.5461C216.943 41.6229 217.163 41.7813 217.433 41.898C217.713 42.0193 217.84 41.9595 217.729 41.7581C217.544 41.4198 216.943 41.2579 216.943 41.5461ZM216.943 42.6135C216.943 42.6903 217.163 42.8487 217.433 42.9654C217.713 43.0867 217.84 43.0269 217.729 42.8256C217.544 42.4872 216.943 42.3253 216.943 42.6135ZM96.3317 48.9387C90.7369 49.5119 89.1539 49.5553 86.1259 49.2176C84.1195 48.9942 82.4224 48.9533 82.2701 49.1251C82.1206 49.2938 81.5581 51.1084 81.0198 53.1578C80.4819 55.2069 78.7877 61.4471 77.2552 67.0244C74.4463 77.2478 71.4482 88.5834 71.1618 90.0629L71.007 90.8634H76.7762H82.5457L83.2189 89.2474C83.5891 88.3586 84.2595 86.1572 84.7085 84.355C85.1578 82.5532 86.2416 78.4369 87.1173 75.2079C87.9932 71.979 89.4633 66.3868 90.3847 62.781C91.3057 59.1753 92.2404 56.0954 92.4614 55.937C93.4503 55.229 97.9881 55.4489 98.7654 56.2427C99.9463 57.4482 99.6688 58.9347 95.3901 74.3184C92.4671 84.8289 91.1291 89.9647 91.1285 90.6784C91.1282 90.9157 93.0958 91.005 96.8059 90.9367L102.484 90.8325L103.013 89.922C103.304 89.421 104.016 86.9866 104.595 84.5112C105.174 82.0362 106.706 76.3156 107.998 71.7986C112.1 57.4592 112.69 53.9129 111.333 51.7613C110.22 49.9968 105.767 47.9933 103.447 48.2135C103.176 48.2392 99.9737 48.5654 96.3317 48.9387ZM186.202 48.7028C181.465 49.8161 177.415 53.1073 175.565 57.3489C174.63 59.4919 174.532 60.0178 174.532 62.9251C174.532 67.3382 174.988 68.2056 180.519 74.3184C183.844 77.9932 185.082 79.5961 185.238 80.4301C185.826 83.5594 182.455 85.8377 178.542 84.9546C177.741 84.7738 177.552 84.5283 177.382 83.4424C176.954 80.7137 177.316 80.9008 172.469 80.9008C168.126 80.9008 168.077 80.9097 167.561 81.7996C167.172 82.4699 167.09 83.1186 167.239 84.3486C167.529 86.7329 168.311 87.9921 170.598 89.7569C173.115 91.6996 175.282 92.0796 180.681 91.5245C184.43 91.1392 187.768 89.9408 190.965 87.8323C193.904 85.8935 195.844 82.1543 196.064 78.0028C196.271 74.1135 195.652 72.871 190.846 67.5317C185.809 61.936 185.411 61.3129 185.411 59.0287C185.411 57.9324 185.613 56.8938 185.925 56.3918C186.805 54.9739 189.408 54.1395 190.915 54.7921C191.531 55.0589 192.348 56.7479 192.348 57.7556C192.348 58.4569 192.522 58.485 196.857 58.485C199.944 58.485 201.486 58.3501 201.745 58.058C202.314 57.4154 202.187 54.2292 201.525 52.5861C200.334 49.6264 197.97 48.548 192.19 48.3285C189.637 48.2317 187.69 48.3534 186.202 48.7028ZM55.4848 50.4121C50.9148 52.7376 48.7984 54.6312 45.9567 58.9361C43.7248 62.3167 40.9187 69.7388 39.8835 74.9994C39.4764 77.0674 39.379 78.6094 39.5162 80.8041C39.8321 85.8547 41.5611 88.9659 45.0895 90.8339C46.7368 91.706 47.0925 91.753 52.0286 91.753H57.2314L59.9117 90.2984C63.9009 88.133 67.4795 84.0924 67.4795 81.753C67.4795 81.2278 67.2159 81.1819 65.351 81.3805C64.1802 81.5054 62.2262 81.6085 61.0081 81.61L58.7939 81.6124L58.1859 82.8862C57.8517 83.5868 57.1517 84.5646 56.6307 85.0592C55.8191 85.8298 55.4584 85.9344 54.111 85.7882C51.9491 85.5537 51.0826 84.423 51.0826 81.8359C51.0826 79.4612 51.5654 76.4066 52.4253 73.3399L53.0988 70.9382H61.9913H70.884L71.7108 68.3586C73.518 62.7205 74.0058 56.7803 72.8668 54.29C72.046 52.4964 70.1405 50.4914 68.4255 49.6172C67.2266 49.0059 66.3462 48.8928 62.7496 48.8878L58.4927 48.8817L55.4848 50.4121ZM120.951 49.6788C120.696 50.1192 119.641 53.8417 118.607 57.9513C116.579 66.0078 115.174 71.5549 112.48 82.1462C110 91.8949 110.098 91.0058 111.529 90.7393C112.189 90.6161 114.857 90.5133 117.458 90.5108L122.188 90.5059L127.669 70.137C130.683 58.9337 133.217 49.5677 133.3 49.3229C133.416 48.9767 132.116 48.8782 127.432 48.8782C121.539 48.8782 121.405 48.8949 120.951 49.6788ZM140.24 50.9241C139.285 53.3806 138.203 57.1201 136.716 63.1105C136.108 65.5567 135.105 69.2393 134.487 71.294C131.988 79.6 131.422 82.2874 131.543 85.2826C131.651 87.9789 131.696 88.1216 132.804 89.2673C133.436 89.9209 134.499 90.6386 135.166 90.8617C137.31 91.58 143.394 91.9323 146.468 91.5156C148.029 91.3043 152.069 91.031 155.446 90.9086L161.585 90.6855L163.195 83.9252C164.081 80.207 165.815 73.7224 167.048 69.515C169.247 62.0121 171.532 53.393 172.121 50.3825L172.419 48.8625L166.713 48.9593L161.008 49.0561L160.46 50.1235C160.158 50.7106 159.266 53.6727 158.477 56.7059C157.688 59.7392 156.255 65.1831 155.291 68.8034C154.328 72.4237 153.207 76.8268 152.801 78.5881C151.5 84.2351 150.99 84.8147 147.321 84.8147C144.58 84.8147 144.102 84.3351 144.106 81.5843C144.109 79.6523 144.446 78.3088 148.695 63.2884C151.391 53.7535 152.302 50.285 152.302 49.5443C152.302 48.918 151.964 48.8782 146.669 48.8782H141.036L140.24 50.9241ZM63.5912 55.8442C64.3606 56.7123 64.3953 56.9088 64.2351 59.4912C64.1421 60.9927 63.905 62.8216 63.7082 63.5552L63.3506 64.8895H59.1164H54.8823L55.0652 63.7331C55.3332 62.0377 56.8379 58.4875 57.875 57.1034C59.585 54.8212 62.1782 54.2502 63.5912 55.8442ZM216.313 71.1161C216.086 71.4239 216.056 71.6498 216.241 71.6498C216.416 71.6498 216.642 71.4097 216.742 71.1161C216.842 70.8226 216.874 70.5824 216.814 70.5824C216.755 70.5824 216.529 70.8226 216.313 71.1161Z" fill="black"/>
<path fill-rule="evenodd" clip-rule="evenodd" d="M120.43 48.448C120.175 48.8885 119.12 52.611 118.086 56.7206C116.058 64.7771 114.654 70.3241 111.96 80.9155C109.48 90.6642 109.578 89.7751 111.009 89.5086C111.668 89.3854 114.337 89.2826 116.938 89.2801L121.668 89.2751L127.149 68.9063C130.163 57.703 132.697 48.337 132.779 48.0922C132.896 47.746 131.596 47.6475 126.912 47.6475C121.019 47.6475 120.885 47.6642 120.43 48.448Z" fill="#FF0000"/>
<path fill-rule="evenodd" clip-rule="evenodd" d="M247.276 19.3723C246.409 19.726 243.216 21.2265 240.181 22.7063C229.799 27.7687 219.027 30.893 207.387 32.2173C197.116 33.3862 184.372 35.0211 181.907 35.4858C180.148 35.8174 179.93 35.9469 180.015 36.6116C180.072 37.0513 180.634 37.6982 181.373 38.1725C183.621 39.616 191.873 42.3646 197.118 43.4164C197.8 43.553 200.039 44.2162 202.094 44.8901C204.149 45.564 206.889 46.3439 208.184 46.6236C212.447 47.5437 213.378 48.4606 213.378 51.7358C213.378 53.813 212.224 58.9171 210.585 64.0905C207.593 73.5333 206.812 75.9162 206.48 76.6164C206.286 77.0266 205.98 77.7959 205.802 78.326C205.481 79.2782 205.486 79.2828 206.196 78.7085C208.555 76.801 208.55 77.1487 206.16 81.1995C202.878 86.7608 205.442 85.1444 213.016 76.8765C220.001 69.2522 227.232 59.6967 232.67 50.9025C244.882 31.1574 249.772 22.2448 249.583 20.079C249.528 19.4496 249.341 18.8884 249.168 18.8319C248.994 18.7753 248.143 19.0187 247.276 19.3723ZM245.869 23.2385C245.456 24.8012 243.601 28.7984 243.05 29.3136C242.663 29.6754 242.656 29.7242 243.019 29.5232C243.303 29.3659 243.227 29.6039 242.829 30.1195C242.465 30.5913 242.076 31.2677 241.964 31.6224C241.847 31.9971 241.608 32.1608 241.396 32.0124C241.177 31.8601 241.114 31.9117 241.24 32.1405C241.505 32.6251 240.217 35.1364 239.839 34.8724C239.684 34.7646 239.628 34.8848 239.713 35.1396C239.886 35.6544 238.492 37.6704 238.195 37.3353C238.092 37.2189 238.027 37.4217 238.05 37.7864C238.106 38.6646 235.801 42.2515 235.373 41.9526C235.184 41.8213 235.13 41.8875 235.249 42.1049C235.423 42.4215 234.237 44.7941 233.163 46.2771C233.022 46.4727 232.472 47.3139 231.943 48.1465C231.413 48.9787 230.829 49.5544 230.644 49.4256C230.455 49.2936 230.4 49.3587 230.518 49.574C230.764 50.0237 225.747 57.7088 225.302 57.565C225.135 57.5113 225.078 57.6124 225.175 57.7896C225.272 57.9668 224.916 58.7314 224.383 59.4885C223.255 61.0907 222.95 61.4327 223.311 60.6873C223.462 60.3756 223.452 60.2749 223.287 60.4457C223.131 60.6061 223.002 60.9498 223 61.2092C222.998 61.469 222.465 62.3781 221.816 63.2302C221.168 64.082 219.49 66.4221 218.088 68.4307C216.623 70.5289 215.394 71.9813 215.198 71.845C215.011 71.7141 214.94 71.7582 215.041 71.9425C215.142 72.1272 214.756 72.9082 214.183 73.6785C213.227 74.9637 213.092 75.0359 212.55 74.5545C212.01 74.0745 211.995 74.0816 212.381 74.637C212.612 74.9711 212.694 75.4408 212.563 75.681C212.391 75.9948 212.248 75.924 212.056 75.4298C211.822 74.8263 211.806 74.8406 211.924 75.5447C212.069 76.4075 210.355 78.9658 209.862 78.6221C209.715 78.5196 209.595 78.6605 209.595 78.9352C209.595 79.2099 209.311 79.7247 208.964 80.0787C207.998 81.065 208.215 80.1193 209.238 78.8836C209.735 78.2826 210.08 77.7208 210.004 77.6351C209.869 77.4828 210.523 75.982 210.878 75.6312C210.977 75.5333 211.754 73.9048 212.604 72.0122C213.454 70.1197 214.282 68.6634 214.444 68.7762C214.605 68.8886 214.632 68.7893 214.504 68.5552C214.376 68.3211 214.732 67.0555 215.295 65.7429C216.929 61.9315 217.8 59.3114 218.563 55.9041C218.956 54.1543 219.338 52.9317 219.414 53.1879C219.49 53.4441 219.534 52.2343 219.512 50.4991C219.465 46.7175 218.828 44.8229 216.897 42.719C214.211 39.7914 210.075 37.5434 204.574 36.0209L201.673 35.2179L206.028 34.5539C208.423 34.1889 210.978 33.8793 211.704 33.8658C212.431 33.8523 212.957 33.7637 212.873 33.6687C212.743 33.5217 216.811 32.5144 219.37 32.0601C219.803 31.9829 221.122 31.6626 222.3 31.3485C223.478 31.0339 224.6 30.8866 224.793 31.0211C224.991 31.1595 225.055 31.1047 224.94 30.8944C224.815 30.6674 225.317 30.428 226.231 30.2775C227.053 30.1423 228.558 29.7263 229.577 29.3534C230.594 28.9802 231.552 28.7624 231.705 28.8688C231.858 28.9752 231.983 28.9307 231.983 28.7699C231.983 28.6087 232.685 28.2889 233.543 28.059C235.268 27.5968 243.4 24.0726 243.65 23.679C243.833 23.3901 245.598 22.2953 245.914 22.2743C246.032 22.2665 246.012 22.7002 245.869 23.2385ZM218.365 33.8889C218.592 33.9917 218.864 33.9789 218.969 33.8608C219.073 33.7427 218.887 33.6587 218.555 33.674C218.188 33.6911 218.113 33.7754 218.365 33.8889ZM208.905 36.7354C209.132 36.8382 209.404 36.8254 209.509 36.7073C209.614 36.5891 209.428 36.5052 209.095 36.5205C208.728 36.5375 208.653 36.6219 208.905 36.7354ZM216.532 40.5461C216.532 40.6229 216.752 40.7813 217.021 40.898C217.302 41.0193 217.428 40.9595 217.318 40.7581C217.133 40.4198 216.532 40.2579 216.532 40.5461ZM216.532 41.6135C216.532 41.6903 216.752 41.8487 217.021 41.9654C217.302 42.0867 217.428 42.0269 217.318 41.8256C217.133 41.4872 216.532 41.3253 216.532 41.6135ZM215.901 70.1161C215.675 70.4239 215.644 70.6499 215.829 70.6499C216.005 70.6499 216.231 70.4097 216.33 70.1161C216.43 69.8226 216.463 69.5824 216.403 69.5824C216.343 69.5824 216.117 69.8226 215.901 70.1161Z" fill="#FF0000"/>
</g>
<defs>
<clipPath id="clip0_51_47">
<rect width="250" height="100" fill="white"/>
</clipPath>
</defs>
</svg>
